#!OML:ASF I:\Random Stuff\random\construction\7_22_03\Session 2\subj1.ASF
:FULLY-SPECIFIED
:DEGREES
339
root 4.85412 17.5184 -8.77677 2.51194 -54.8783 0.900767
lowerback 1.55172 -1.16658 3.23187
upperback -0.78297 -1.46674 1.77817
thorax -1.70794 -0.763482 0.0582634
lowerneck -12.9898 -1.15541 -5.2454
upperneck 14.6373 -2.43489 10.6718
head 6.79605 -0.598946 4.09452
rclavicle -4.27387e-015 7.95139e-015
rhumerus -33.8519 30.6433 -92.6653
rradius 105.635
rwrist -8.67481
rhand -13.8007 32.3877
rfingers 7.12502
rthumb 12.3213 2.77074
lclavicle -4.27387e-015 7.95139e-015
lhumerus 2.29708 -52.2654 68.9893
lradius 116.708
lwrist 27.309
lhand -3.48539 56.8108
lfingers 7.12502
lthumb 22.2481 85.5502
rfemur -0.665691 18.1357 27.7431
rtibia 12.3218
rfoot -19.1919 -42.7963
rtoes 23.5934
lfemur -13.9783 -0.831398 -10.6558
ltibia 26.3808
lfoot -10.297 7.61966
ltoes -28.1328
340
root 4.85333 17.5106 -8.72286 2.28141 -54.9317 0.973406
lowerback 1.42916 -1.1677 3.04802
upperback -0.780424 -1.47799 1.7428
thorax -1.63283 -0.766256 0.122024
lowerneck -12.947 -1.09171 -5.20767
upperneck 14.6298 -2.34805 10.6293
head 6.77759 -0.559846 4.0821
rclavicle 1.98039e-014 3.18055e-015
rhumerus -34.007 30.6152 -92.8413
rradius 105.677
rwrist -8.92405
rhand -14.2628 32.301
rfingers 7.12502
rthumb 11.8757 2.65777
lclavicle 1.98039e-014 3.18055e-015
lhumerus 1.9904 -52.5169 69.4515
lradius 116.728
lwrist 25.448
lhand -4.28632 57.0096
lfingers 7.12502
lthumb 21.479 85.8388
rfemur -0.320569 18.3092 27.656
rtibia 12.3455
rfoot -19.6071 -42.8808
rtoes 24.0465
lfemur -13.4201 -1.75048 -10.8549
ltibia 25.8948
lfoot -10.4677 8.70213
ltoes -29.857
341
root 4.8554 17.5058 -8.66762 2.32127 -54.9935 0.815407
lowerback 1.24761 -1.15179 2.99099
upperback -0.805921 -1.46533 1.75177
thorax -1.55509 -0.75878 0.158877
lowerneck -12.9101 -1.09298 -5.20787
upperneck 14.633 -2.34677 10.604
head 6.77162 -0.562319 4.07376
rclavicle -3.95085e-014 -1.35174e-014
rhumerus -34.1857 30.546 -93.019
rradius 105.659
rwrist -8.98382
rhand -15.0981 32.3254
rfingers 7.12502
rthumb 11.0702 2.63737
lclavicle -3.95085e-014 -1.35174e-014
lhumerus 1.60184 -52.9268 70.0222
lradius 116.779
lwrist 23.494
lhand -5.96302 56.9719
lfingers 7.12502
lthumb 19.8679 85.9764
rfemur -0.0530185 18.5143 27.6781
rtibia 12.3211
rfoot -20.0128 -42.9987
rtoes 24.631
lfemur -13.0171 -2.70249 -10.9393
ltibia 25.4621
lfoot -10.6989 10.1277
ltoes -31.1959
342
root 4.86067 17.501 -8.61115 2.62845 -55.0779 0.402927
lowerback 1.04368 -1.12049 3.07758
upperback -0.851839 -1.43006 1.79535
thorax -1.48813 -0.741872 0.150384
lowerneck -12.8749 -1.07863 -5.17235
upperneck 14.5977 -2.32834 10.5817
head 6.75197 -0.554843 4.06127
rclavicle 2.78795e-014 4.77083e-015
rhumerus -34.3809 30.4265 -93.1947
rradius 105.611
rwrist -8.94158
rhand -16.2732 32.5555
rfingers 7.12502
rthumb 9.93663 2.81005
lclavicle 2.78795e-014 4.77083e-015
lhumerus 1.21532 -53.3221 70.6106
lradius 116.801
lwrist 21.5088
lhand -6.99767 57.3121
lfingers 7.12502
lthumb 18.8731 86.4165
rfemur 0.134027 18.7665 27.8324
rtibia 12.2659
rfoot -19.9398 -43.3027
rtoes 24.6887
lfemur -12.6653 -3.51205 -10.891
ltibia 25.0997
lfoot -11.0798 11.3604
ltoes -31.0216
343
root 4.86768 17.4945 -8.55222 2.89301 -55.1612 0.0375461
lowerback 0.864729 -1.11946 3.16151
upperback -0.894644 -1.43455 1.82998
thorax -1.43297 -0.744877 0.135798
lowerneck -12.8626 -1.00441 -5.12302
upperneck 14.5666 -2.22644 10.5409
head 6.73018 -0.507104 4.04852
rclavicle 4.12727e-014 -2.14687e-014
rhumerus -34.5524 30.3766 -93.374
rradius 105.601
rwrist -8.70581
rhand -17.5249 32.7583
rfingers 7.12502
rthumb 8.72886 2.95883
lclavicle 4.12727e-014 -2.14687e-014
lhumerus 0.768615 -53.7259 71.178
lradius 116.826
lwrist 19.6484
lhand -8.22876 57.9624
lfingers 7.12502
lthumb 17.6887 87.1778
rfemur 0.323963 19.0154 27.9346
rtibia 12.1579
rfoot -19.724 -43.5616
rtoes 24.493
lfemur -12.2791 -4.08101 -10.9191
ltibia 24.8221
lfoot -11.6567 12.2986
ltoes -30.5314
344
root 4.87595 17.4891 -8.49442 3.11838 -55.2351 -0.267568
lowerback 0.696544 -1.12014 3.17486
upperback -0.934332 -1.44209 1.88543
thorax -1.37837 -0.748585 0.182179
lowerneck -13.0051 -0.964287 -5.08964
upperneck 14.7619 -2.16316 10.3906
head 6.80999 -0.479857 4.00392
rclavicle 8.1626e-014 3.4191e-014
rhumerus -34.6772 30.3631 -93.538
rradius 105.561
rwrist -8.13784
rhand -18.8203 32.92
rfingers 7.12502
rthumb 7.4786 3.07216
lclavicle 8.1626e-014 3.4191e-014
lhumerus 0.239659 -54.1887 71.8493
lradius 116.82
lwrist 17.5329
lhand -10.0492 58.5041
lfingers 7.12502
lthumb 15.9363 87.8685
rfemur 0.521136 19.259 27.9953
rtibia 12.0222
rfoot -19.7418 -43.6872
rtoes 24.5023
lfemur -11.9382 -4.45073 -11.0055
ltibia 24.6105
lfoot -12.0681 13.1263
ltoes -31.4002
345
root 4.88413 17.4856 -8.43753 3.37408 -55.3073 -0.578017
lowerback 0.508342 -1.10184 3.15827
upperback -0.978058 -1.42562 1.9494
thorax -1.31523 -0.739948 0.253131
lowerneck -13.1149 -0.983862 -5.09965
upperneck 14.9259 -2.1801 10.2896
head 6.88206 -0.491324 3.97439
rclavicle 7.81224e-014 2.06736e-014
rhumerus -34.7581 30.2545 -93.6696
rradius 105.521
rwrist -7.68383
rhand -19.645 33.0474
rfingers 7.12502
rthumb 6.68251 3.17284
lclavicle 7.81224e-014 2.06736e-014
lhumerus -0.211913 -54.6503 72.5145
lradius 116.68
lwrist 14.835
lhand -11.6877 58.7281
lfingers 7.12502
lthumb 14.3579 88.2116
rfemur 0.699525 19.5153 28.0565
rtibia 11.8797
rfoot -19.8183 -43.8271
rtoes 24.4472
lfemur -11.6607 -4.88447 -11.0684
ltibia 24.4074
lfoot -12.3403 13.9426
ltoes -32.0606
346
root 4.89311 17.4837 -8.38035 3.64212 -55.3659 -0.869634
lowerback 0.305059 -1.07118 3.16312
upperback -1.03517 -1.39287 1.9749
thorax -1.2586 -0.723645 0.272401
lowerneck -13.0509 -1.03554 -5.14924
upperneck 14.8826 -2.2575 10.3861
head 6.86509 -0.526071 4.00596
rclavicle -5.13983e-014 -7.15625e-015
rhumerus -34.8422 30.0391 -93.8092
rradius 105.54
rwrist -7.36301
rhand -20.2227 33.0051
rfingers 7.12502
rthumb 6.12484 3.11367
lclavicle -5.13983e-014 -7.15625e-015
lhumerus -0.718809 -55.1449 73.2288
lradius 116.406
lwrist 11.5982
lhand -13.2227 58.5308
lfingers 7.12502
lthumb 12.8785 88.1135
rfemur 0.867835 19.7568 28.0839
rtibia 11.6734
rfoot -19.9 -43.9742
rtoes 24.4033
lfemur -11.4222 -5.4186 -11.1135
ltibia 24.1905
lfoot -12.6179 14.6404
ltoes -31.8697
347
root 4.90397 17.485 -8.32412 3.86691 -55.4234 -1.07106
lowerback 0.113239 -1.02285 3.14034
upperback -1.10899 -1.33571 1.9545
thorax -1.22557 -0.695287 0.260371
lowerneck -12.9716 -1.08013 -5.17784
upperneck 14.8132 -2.33401 10.5163
head 6.8374 -0.55743 4.04466
rclavicle 5.45415e-015 1.27222e-014
rhumerus -34.9244 29.7866 -94.0174
rradius 105.536
rwrist -6.92401
rhand -21.0038 32.975
rfingers 7.12502
rthumb 5.37071 3.06306
lclavicle 5.45415e-015 1.27222e-014
lhumerus -1.37337 -55.6037 74.1082
lradius 116.094
lwrist 8.35267
lhand -14.6287 58.3588
lfingers 7.12502
lthumb 11.5229 88.0221
rfemur 1.01704 19.9757 28.0333
rtibia 11.4281
rfoot -20.0918 -44.0382
rtoes 24.6796
lfemur -11.2334 -5.76049 -11.197
ltibia 23.9558
lfoot -12.776 15.0651
ltoes -31.7683
348
root 4.91611 17.4928 -8.26738 3.97303 -55.4979 -1.1233
lowerback -0.0376479 -0.98736 3.0674
upperback -1.19439 -1.2935 1.89053
thorax -1.2275 -0.674348 0.233108
lowerneck -12.9671 -1.08516 -5.16652
upperneck 14.8373 -2.3533 10.5559
head 6.84642 -0.562831 4.05443
rclavicle 8.15017e-015 -1.74931e-014
rhumerus -34.9822 29.5742 -94.2982
rradius 105.462
rwrist -6.57166
rhand -21.6477 33.0955
rfingers 7.12502
rthumb 4.74898 3.16868
lclavicle 8.15017e-015 -1.74931e-014
lhumerus -2.08894 -55.8964 75.0128
lradius 115.784
lwrist 5.59585
lhand -15.7711 58.6319
lfingers 7.12502
lthumb 10.421 88.3537
rfemur 1.10894 20.1862 27.8759
rtibia 11.2591
rfoot -20.1053 -44.0881
rtoes 24.9011
lfemur -11.0461 -5.92703 -11.3646
ltibia 23.6842
lfoot -12.8043 15.3193
ltoes -32.0734
349
root 4.92857 17.5013 -8.21328 3.96519 -55.6217 -1.11474
lowerback -0.136427 -0.948203 2.89574
upperback -1.23522 -1.24548 1.85183
thorax -1.21006 -0.648763 0.287332
lowerneck -13.0212 -1.11371 -5.20049
upperneck 14.9135 -2.39315 10.569
head 6.88422 -0.58024 4.06239
rclavicle 3.61726e-014 1.35174e-014
rhumerus -34.9493 29.4101 -94.4749
rradius 105.362
rwrist -6.50812
rhand -21.9833 33.3465
rfingers 7.12502
rthumb 4.42485 3.41274
lclavicle 3.61726e-014 1.35174e-014
lhumerus -2.87238 -56.1077 75.9518
lradius 115.468
lwrist 3.5942
lhand -17.0313 58.846
lfingers 7.12502
lthumb 9.20517 88.6251
rfemur 1.19238 20.4388 27.7226
rtibia 11.264
rfoot -20.0613 -44.1664
rtoes 24.8842
lfemur -10.7292 -6.12147 -11.5484
ltibia 23.3435
lfoot -12.8377 15.5562
ltoes -32.3319
350
root 4.94118 17.5094 -8.16428 3.89776 -55.792 -1.04992
lowerback -0.244861 -0.875049 2.56646
upperback -1.23099 -1.15385 1.85837
thorax -1.13638 -0.59877 0.474964
lowerneck -13.0794 -1.17354 -5.28147
upperneck 14.9454 -2.46154 10.5818
head 6.91157 -0.614348 4.07463
rclavicle 1.2014e-014 1.19271e-014
rhumerus -34.8595 29.3307 -94.5546
rradius 105.295
rwrist -6.58026
rhand -22.4727 33.6993
rfingers 7.12502
rthumb 3.95233 3.75617
lclavicle 1.2014e-014 1.19271e-014
lhumerus -3.66962 -56.3213 76.9648
lradius 115.13
lwrist 2.70872
lhand -18.7298 58.5201
lfingers 7.12502
lthumb 7.56594 88.3648
rfemur 1.16971 20.7294 27.5606
rtibia 11.4598
rfoot -19.6577 -44.4824
rtoes 23.6017
lfemur -10.3441 -6.31715 -11.7658
ltibia 22.9293
lfoot -12.8457 15.8162
ltoes -32.4472
